<?xml version="1.0" standalone="no"?>
<!DOCTYPE svg PUBLIC "-//W3C//DTD SVG 20010904//EN"
 "http://www.w3.org/TR/2001/REC-SVG-20010904/DTD/svg10.dtd">
<svg version="1.0" xmlns="http://www.w3.org/2000/svg"
 width="260.000000pt" height="260.000000pt" viewBox="0 0 260.000000 260.000000"
 preserveAspectRatio="xMidYMid meet">
<metadata>
Created by potrace 1.11, written by Peter Selinger 2001-2013
</metadata>
<g transform="translate(0.000000,260.000000) scale(0.100000,-0.100000)"
fill="#000000" stroke="none">
<path d="M360 1507 l0 -747 95 0 95 0 0 517 0 518 122 -130 c205 -218 921
-940 935 -943 9 -2 13 8 13 33 0 34 2 37 23 31 128 -37 310 -49 407 -26 129
30 249 119 298 221 68 142 46 327 -54 438 -56 63 -130 108 -262 160 -258 103
-330 168 -320 288 5 60 27 96 78 130 93 64 274 57 437 -17 36 -17 67 -29 68
-28 2 2 19 36 39 75 l36 73 -47 24 c-27 13 -86 36 -133 52 -76 25 -100 28
-225 28 -156 1 -210 -12 -299 -73 l-45 -31 -3 52 -3 53 -95 0 -95 0 0 -125 c0
-69 -1 -300 -3 -515 l-2 -390 -98 100 c-54 55 -292 298 -530 539 l-432 440 0
-747z m1303 29 c45 -34 117 -68 232 -111 246 -91 325 -186 281 -339 -19 -65
-81 -126 -153 -150 -87 -30 -217 -18 -340 31 l-63 25 0 284 c0 156 3 284 6
284 3 0 20 -11 37 -24z"/>
</g>
</svg>
